PathFileType	4	(X/Y/Z)	s04c0402.trc
DataRate	CameraRate	NumFrames	NumMarkers	Units	OrigDataRate	OrigDataStartFrame	OrigNumFrames
200	200	6	50	mm	200	500	2000
Frame#	Time	racr			lacr			c7			jug			rlel			rdr			llel			ldr			s2			lic			ric			lasi			rasi			rpsi			lpsi			rgt			lgt			rth1			rth2			rth3			rth4			rlfc			rmfc			rsh1			rsh2			rsh3			rsh4			rlmal			rmmal			rcal			rtoe			rmt5			lth1			lth2			lth4			lth3			llfc			lmfc			lsh1			lsh2			lsh3			lsh4			llmal			lmmal			lcal			ltoe			lmt5			SBIKE			LBIKE			RBIKE			
		X1	Y1	Z1	X2	Y2	Z2	X3	Y3	Z3	X4	Y4	Z4	X5	Y5	Z5	X6	Y6	Z6	X7	Y7	Z7	X8	Y8	Z8	X9	Y9	Z9	X10	Y10	Z10	X11	Y11	Z11	X12	Y12	Z12	X13	Y13	Z13	X14	Y14	Z14	X15	Y15	Z15	X16	Y16	Z16	X17	Y17	Z17	X18	Y18	Z18	X19	Y19	Z19	X20	Y20	Z20	X21	Y21	Z21	X22	Y22	Z22	X23	Y23	Z23	X24	Y24	Z24	X25	Y25	Z25	X26	Y26	Z26	X27	Y27	Z27	X28	Y28	Z28	X29	Y29	Z29	X30	Y30	Z30	X31	Y31	Z31	X32	Y32	Z32	X33	Y33	Z33	X34	Y34	Z34	X35	Y35	Z35	X36	Y36	Z36	X37	Y37	Z37	X38	Y38	Z38	X39	Y39	Z39	X40	Y40	Z40	X41	Y41	Z41	X42	Y42	Z42	X43	Y43	Z43	X44	Y44	Z44	X45	Y45	Z45	X46	Y46	Z46	X47	Y47	Z47	X48	Y48	Z48	X49	Y49	Z49	X50	Y50	Z50	
500	2.5000	764.276171	1426.858009	-172.787222	810.933103	1373.064082	-480.446809	764.217877	1485.184322	-347.123576	742.444479	1335.324872	-331.393929	572.871806	1192.618834	-29.234026	691.027337	941.159316	-97.805066	589.669783	1175.573013	-588.351224	688.263670	938.310625	-484.344484	190.323550	1298.136733	-298.970108	323.561180	1294.844294	-466.176665	360.153814	1265.147831	-148.231422	365.899180	1241.172440	-430.947364	386.260030	1207.219683	-201.062704	234.935523	1329.446064	-256.421018	222.447628	1341.270257	-326.382158	286.733281	1208.012187	-136.254874	291.079020	1215.214811	-494.494011	295.789306	1049.921598	-109.791493	311.801870	963.264214	-114.414672	285.908235	881.687253	-115.268609	345.519619	962.100674	-130.634204	278.067798	733.721318	-139.160409	254.379108	710.561496	-251.445780	227.895225	619.576952	-107.663517	228.675548	528.827945	-117.256864	183.921815	455.221858	-121.503604	261.081221	522.950963	-138.211892	157.527769	302.062500	-122.261116	184.025789	303.154048	-204.483763	94.608433	316.178533	-162.754155	319.201947	110.291125	-162.731938	253.060818	133.947208	-106.910194	345.857519	1140.465057	-499.555238	421.580680	1097.834425	-498.013288	446.029567	1123.071811	-486.396325	467.511228	1021.876981	-498.880281	558.438693	894.105788	-469.472878	580.278885	868.680129	-356.050860	485.328871	808.456681	-488.202623	434.574764	740.575711	-466.183354	353.699410	702.940451	-462.840205	454.245480	722.254464	-438.057787	236.763393	616.390299	-454.456692	234.757352	622.452378	-363.796636	154.151646	640.913914	-411.563846	398.369432	463.287920	-414.686048	319.878629	472.051452	-477.238297	-185.417962	933.019305	-286.849093	-17.613567	79.267205	-485.361968	-17.498514	79.532631	-84.815625	
501	2.5050	764.340607	1425.882071	-173.888405	811.456478	1371.616814	-481.420651	765.646724	1484.291458	-348.183085	742.899545	1334.251495	-332.405315	572.740926	1192.528526	-30.334471	691.278346	941.142849	-97.891355	589.818689	1175.072391	-589.160436	688.202716	938.180145	-484.077105	190.704268	1300.612981	-299.499006	323.360339	1296.122287	-466.972882	360.623473	1266.484060	-149.017822	365.425637	1242.366384	-431.757724	386.065663	1208.365770	-202.130634	235.592033	1331.098905	-257.008167	223.095560	1343.689751	-327.287082	287.181235	1209.708245	-136.584593	290.376520	1216.675981	-494.908242	296.919864	1051.195464	-111.348385	313.620945	964.543226	-115.786372	288.405249	882.809584	-115.533745	347.034835	963.659839	-132.455948	280.690748	734.611779	-139.700930	255.982970	711.796674	-251.840004	228.768840	621.310017	-108.331603	227.548270	530.586154	-118.017041	181.242908	457.865506	-121.983476	259.684340	524.084900	-139.298505	151.767959	304.692073	-122.452050	178.019737	305.347457	-205.318248	88.477220	318.651824	-163.053098	312.121065	111.630021	-162.895680	246.418045	135.978743	-107.189536	344.331532	1141.843326	-500.117650	419.787866	1098.912175	-498.684573	444.448764	1124.039417	-487.410181	465.348916	1022.690025	-499.555802	556.223945	894.418141	-470.494384	578.961089	868.873425	-357.245162	484.046921	807.823076	-488.776689	434.256909	739.012416	-467.170949	353.860144	700.320567	-463.571250	454.320979	720.821373	-439.145221	238.044352	612.631411	-454.730514	235.937089	618.223937	-363.988552	154.668821	634.538833	-411.964936	404.635283	465.296564	-415.059820	325.827671	471.206333	-477.598506	-185.398365	933.035728	-287.023322	-17.622422	79.248479	-485.369060	-17.520662	79.583872	-84.852780	
502	2.5100	764.317142	1424.587200	-175.005298	811.823808	1370.234503	-482.264790	767.032985	1483.278725	-349.178002	743.286339	1332.946837	-333.193108	572.378763	1192.405849	-31.252815	691.356149	941.041767	-97.887352	589.986817	1174.485478	-589.867699	688.055016	938.021043	-483.823238	191.084276	1302.868523	-300.101618	323.145755	1297.264325	-467.610583	361.033427	1267.763751	-149.759796	364.973890	1243.474724	-432.331626	385.760044	1209.251264	-203.113812	235.941939	1331.690655	-261.457698	223.987268	1346.925653	-330.497374	287.528376	1211.251325	-136.952846	289.728147	1217.836989	-495.340176	298.332790	1052.394830	-112.733560	315.986392	965.998869	-117.062083	291.717415	883.848556	-116.027372	349.054235	965.217170	-134.507548	284.000361	735.373147	-140.204944	258.316852	713.141717	-252.146937	230.016736	622.989053	-109.028204	226.676959	532.339168	-118.924641	178.743692	460.731560	-122.564779	258.428889	525.187822	-140.500558	145.847603	307.430188	-122.992752	171.927595	307.702450	-206.506921	82.167546	321.269940	-163.656159	305.377704	113.763830	-162.937807	239.718513	138.498525	-107.384255	342.803159	1142.877269	-500.557983	418.008972	1099.533437	-499.415910	442.887335	1124.636159	-488.379193	463.206629	1023.118911	-500.158140	554.040522	894.242038	-471.538201	577.513590	868.667218	-358.496728	482.845614	806.023728	-490.028378	433.976012	736.731018	-468.174154	354.105433	697.004154	-464.297432	454.300344	718.873526	-440.093751	239.157096	608.262693	-455.254484	237.584539	613.650770	-363.914035	155.266655	627.418567	-412.614593	410.730806	467.035825	-415.450011	331.807254	469.943577	-478.018769	-185.389779	933.016350	-287.177147	-17.605840	79.207911	-485.393988	-17.502405	79.584263	-84.865295	
503	2.5150	764.104772	1423.243534	-176.239065	812.049444	1368.920074	-483.098860	768.350163	1482.276397	-350.244233	743.701888	1331.892831	-334.124713	571.863953	1192.197772	-32.011268	691.229877	940.928313	-97.840666	590.122544	1173.893318	-590.528805	687.874990	937.883141	-483.595382	191.433859	1305.094363	-300.707088	322.967725	1298.267594	-468.283185	361.331246	1269.103177	-150.489347	364.508644	1244.274722	-432.923291	385.546080	1210.164101	-204.005151	236.277127	1333.452147	-262.870963	224.788619	1348.925228	-331.503055	287.875496	1212.862443	-137.244225	289.104452	1218.751036	-495.635302	300.169325	1053.405710	-113.862264	318.957798	967.276018	-118.459185	295.824166	884.901789	-116.775270	351.484973	966.959875	-136.599780	287.973353	736.074097	-140.837144	261.263028	714.591863	-252.830365	231.659721	624.805553	-109.687176	226.036807	534.274956	-119.797564	176.223549	463.815843	-123.249643	257.307728	526.308544	-141.915633	139.752830	310.558770	-123.784135	165.715681	310.479532	-207.964204	75.597796	324.283441	-164.750648	298.447232	116.087636	-162.854622	232.803975	141.341967	-107.720904	341.315740	1143.611114	-500.910197	416.349512	1099.910644	-500.067355	441.387988	1124.911321	-489.360912	461.069392	1023.235516	-500.780659	551.742219	893.673275	-472.546928	575.891300	868.132458	-359.762083	481.731006	803.369863	-491.621769	433.635776	733.841365	-468.996653	354.474286	693.088108	-464.933530	454.227915	716.431690	-440.828815	240.351426	603.289050	-455.787972	238.505606	608.718978	-364.651074	155.903101	619.978721	-413.209085	416.940775	468.865262	-416.097574	337.575229	468.330729	-478.463842	-185.368234	933.009596	-287.340928	-17.605112	79.175954	-485.413828	-17.509086	79.578970	-84.890965	
504	2.5200	763.923442	1421.833273	-177.064463	812.148389	1367.670364	-483.894562	769.569548	1481.295323	-350.886825	743.959378	1330.520485	-334.797616	571.113933	1191.955888	-32.613041	690.996005	940.758394	-97.808322	590.147146	1173.296891	-591.070173	687.906076	938.015263	-483.413116	191.707146	1307.307272	-300.990503	322.781558	1299.093786	-468.979787	361.547906	1270.430228	-151.139731	364.118296	1244.876181	-433.601705	385.288357	1211.145592	-204.901971	235.626931	1336.092174	-256.890105	225.424415	1350.665807	-331.973172	288.109720	1214.384475	-137.460211	288.475872	1219.465473	-495.969064	302.389044	1054.474428	-114.781399	322.414952	968.726176	-119.826088	300.548164	885.966448	-117.871276	354.529254	968.973502	-138.683688	292.501901	736.750833	-141.518488	264.808750	715.995861	-253.155964	233.620742	626.567211	-110.376065	225.448688	536.276280	-120.869099	173.760851	467.170924	-124.096344	256.310259	527.763109	-143.180557	133.465503	314.022476	-124.834315	159.443505	313.744495	-209.458447	68.996547	327.547952	-166.251363	291.611539	118.928708	-162.485505	225.649354	144.646092	-107.930843	339.891119	1144.060935	-501.278203	414.704510	1099.903797	-500.729605	439.930936	1124.866880	-490.270811	459.028119	1023.023700	-501.361165	549.325274	892.693550	-473.538133	574.112151	867.247459	-360.969228	480.611820	800.119260	-492.943925	433.395735	730.414061	-469.579677	354.747773	688.657403	-465.575050	454.171112	713.245318	-441.386906	241.604313	598.102784	-456.384060	239.420397	603.389389	-365.597138	156.783886	612.030446	-413.817788	422.600977	469.796789	-416.595322	343.384226	466.444720	-478.846745	-185.357874	932.984403	-287.532742	-17.628433	79.129013	-485.441216	-17.519887	79.592098	-84.915796	
505	2.5250	763.654755	1420.185480	-177.824303	812.136455	1366.465852	-484.697080	770.790557	1480.244434	-351.390983	744.128982	1329.177191	-335.461435	570.281655	1191.654401	-33.006017	690.713283	940.641408	-97.816074	590.075647	1172.578463	-591.560298	688.986572	938.749912	-484.292749	192.043041	1309.227918	-301.413684	322.623525	1299.673895	-469.583754	361.809129	1271.649681	-151.794133	363.805607	1245.441217	-434.154913	384.900852	1212.494727	-206.012412	236.078688	1337.631741	-258.110592	225.575489	1351.617186	-330.359272	288.544747	1215.895980	-137.577345	287.797542	1219.964853	-496.199444	305.214201	1055.482572	-115.234088	326.336951	970.014863	-121.213841	305.848095	886.999437	-119.228495	357.909291	971.122838	-141.087113	297.511052	737.495683	-142.259679	268.877771	717.502696	-253.463816	235.662024	628.463723	-111.053777	224.898360	538.348001	-121.925153	171.290685	470.818083	-125.035330	255.374813	529.209994	-144.619193	127.095106	317.623773	-126.018565	153.425383	317.307844	-211.048048	61.958241	330.803063	-168.016208	284.871502	121.846867	-162.419472	218.868393	148.327121	-108.562501	338.531716	1144.244003	-501.556626	413.143392	1099.722332	-501.322673	438.548841	1124.566987	-491.058284	456.987964	1022.577264	-501.914188	546.941714	891.384247	-474.519228	572.150770	866.124793	-362.079612	479.504818	796.799782	-493.634365	433.242806	726.581896	-470.104144	355.027841	683.936269	-466.085152	454.081698	709.926301	-441.643101	243.124166	592.453681	-456.971542	240.591779	597.741102	-366.421737	157.900718	603.773057	-414.332483	428.179873	470.196884	-416.945957	349.133892	464.189197	-479.191164	-185.329304	932.987697	-287.707398	-17.630078	79.112208	-485.470317	-17.568782	79.653701	-84.959206	
